<?xml version="1.0" encoding="UTF-8" standalone="no"?>
<!DOCTYPE svg PUBLIC "-//W3C//DTD SVG 1.1//EN" "http://www.w3.org/Graphics/SVG/1.1/DTD/svg11.dtd">
<svg xmlns="http://www.w3.org/2000/svg" version="1.1" viewBox="0.00 0.00 1392.00 768.00">
<g stroke-width="2.00" fill="none" stroke-linecap="butt">
<path stroke="#654e78" vector-effect="non-scaling-stroke" d="
  M 211.78 634.63
  Q 221.66 610.06 232.32 581.41
  Q 236.79 569.42 243.91 550.64
  C 249.93 534.78 254.06 523.64 257.78 513.59
  Q 277.10 461.42 295.14 413.50
  Q 297.66 406.81 299.41 400.78
  A 0.59 0.59 0.0 0 0 298.84 400.02
  L 196.79 400.02
  A 0.54 0.54 0.0 0 1 196.35 399.17
  Q 199.52 394.57 202.55 389.30
  C 204.11 386.58 206.74 383.04 208.65 380.34
  Q 211.75 375.96 213.28 373.62
  C 247.18 321.91 276.64 277.33 302.22 238.43
  Q 332.45 192.45 333.34 191.08
  C 334.90 188.68 337.03 186.07 338.73 183.47
  Q 355.90 157.18 362.84 145.88
  Q 364.82 142.66 366.11 140.57
  Q 381.14 116.39 396.44 90.65
  A 0.18 0.16 47.9 0 0 396.44 90.48
  Q 396.38 90.37 396.23 90.28
  A 0.04 0.04 0.0 0 0 396.18 90.29
  Q 393.97 93.55 392.89 94.88
  Q 379.63 111.16 367.25 126.86
  C 358.19 138.33 350.12 147.51 342.55 157.76
  Q 340.02 161.19 333.76 168.59
  C 328.11 175.28 325.15 179.15 321.13 183.77
  A 1.79 1.79 0.0 0 1 319.52 184.37
  Q 305.29 182.34 290.49 182.24
  Q 266.41 182.08 145.78 182.20
  A 0.53 0.53 0.0 0 0 145.25 182.73
  L 145.25 577.85
  A 0.81 0.80 90.0 0 0 146.05 578.66
  L 224.77 578.66
  A 0.57 0.57 0.0 0 1 225.32 579.37
  L 211.54 634.55
  A 0.13 0.13 0.0 0 0 211.78 634.63"
/>
<path stroke="#654e78" vector-effect="non-scaling-stroke" d="
  M 196.94 677.31
  Q 213.80 655.51 236.61 627.12
  Q 262.66 594.70 272.86 581.93
  C 274.65 579.69 275.44 578.27 278.00 578.37
  Q 311.01 579.70 343.39 572.60
  C 382.22 564.09 416.47 545.92 442.76 517.08
  C 465.46 492.17 479.97 459.58 485.98 426.23
  Q 494.77 377.40 484.90 328.53
  C 481.48 311.56 475.77 295.74 468.99 281.47
  Q 464.76 272.56 454.08 257.09
  C 449.43 250.35 443.48 243.80 438.42 238.58
  C 420.23 219.80 397.20 205.62 372.68 196.63
  A 1.12 1.12 0.0 0 1 371.97 195.36
  L 385.52 129.52
  A 0.01 0.01 0.0 0 0 385.51 129.51
  L 385.50 129.50
  A 0.19 0.17 -71.5 0 0 385.28 129.62
  Q 376.71 153.57 368.96 178.64
  C 367.50 183.37 365.49 187.59 364.23 192.26
  Q 363.21 196.01 360.96 202.56
  Q 356.38 215.92 353.02 226.84
  C 351.98 230.21 350.59 233.59 349.43 237.18
  Q 341.88 260.54 338.79 270.81
  Q 337.38 275.49 335.28 280.88
  Q 334.21 283.62 332.00 291.03
  Q 330.06 297.52 319.77 329.14
  A 0.80 0.79 -80.9 0 0 320.52 330.19
  L 422.11 330.19
  A 0.37 0.36 15.0 0 1 422.43 330.73
  Q 421.34 332.59 420.11 334.37
  Q 419.00 335.99 402.23 360.99
  Q 343.82 448.07 293.52 523.26
  Q 280.53 542.68 272.82 553.62
  Q 267.21 561.59 263.26 567.99
  Q 243.77 599.62 233.62 615.79
  C 229.39 622.52 226.63 628.28 222.33 634.68
  Q 218.34 640.63 213.57 648.66
  Q 210.33 654.12 196.46 676.98
  A 0.27 0.27 0.0 0 0 196.54 677.34
  L 196.58 677.37
  A 0.27 0.26 -53.1 0 0 196.94 677.31"
/>
<path stroke="#654e78" vector-effect="non-scaling-stroke" d="
  M 798.25 342.84
  A 0.56 0.56 0.0 0 0 797.69 342.28
  L 629.14 342.28
  A 0.56 0.56 0.0 0 1 628.58 341.72
  L 628.58 255.81
  A 0.56 0.56 0.0 0 1 629.14 255.25
  L 811.37 255.25
  A 0.56 0.56 0.0 0 0 811.93 254.69
  L 811.93 182.72
  A 0.56 0.56 0.0 0 0 811.37 182.16
  L 540.24 182.16
  A 0.56 0.56 0.0 0 0 539.68 182.72
  L 539.68 578.10
  A 0.56 0.56 0.0 0 0 540.24 578.66
  L 811.60 578.66
  A 0.56 0.56 0.0 0 0 812.16 578.10
  L 812.16 505.93
  A 0.56 0.56 0.0 0 0 811.60 505.37
  L 629.12 505.37
  A 0.56 0.56 0.0 0 1 628.56 504.81
  L 628.56 415.73
  A 0.56 0.56 0.0 0 1 629.12 415.17
  L 797.69 415.17
  A 0.56 0.56 0.0 0 0 798.25 414.61
  L 798.25 342.84"
/>
<path stroke="#654e78" vector-effect="non-scaling-stroke" d="
  M 839.19 182.81
  L 976.62 577.91
  A 1.04 1.04 0.0 0 0 977.60 578.61
  L 1117.99 578.61
  A 1.91 1.90 9.4 0 0 1119.79 577.33
  Q 1121.56 572.11 1123.15 567.57
  Q 1151.92 485.26 1172.45 426.32
  Q 1174.84 419.44 1177.18 412.64
  C 1202.45 339.21 1229.22 262.59 1255.37 187.08
  Q 1256.14 184.85 1256.37 183.09
  A 0.83 0.82 3.7 0 0 1255.55 182.16
  L 1147.64 182.16
  A 1.15 1.14 -81.3 0 0 1146.55 182.97
  Q 1138.75 208.78 1134.65 221.47
  Q 1109.75 298.52 1107.67 304.96
  Q 1076.53 401.12 1056.36 463.87
  Q 1054.23 470.49 1051.60 477.89
  A 0.47 0.47 0.0 0 1 1050.73 477.91
  Q 1049.82 475.72 1048.47 471.84
  Q 1039.78 446.85 1014.13 370.21
  Q 973.62 249.14 956.86 200.28
  Q 952.46 187.45 951.50 183.50
  A 1.72 1.72 0.0 0 0 949.83 182.19
  L 839.63 182.19
  A 0.47 0.46 -9.7 0 0 839.19 182.81"
/>
</g>
<path fill="#b88ade" d="
  M 211.54 634.55
  L 225.32 579.37
  A 0.57 0.57 0.0 0 0 224.77 578.66
  L 146.05 578.66
  A 0.81 0.80 90.0 0 1 145.25 577.85
  L 145.25 182.73
  A 0.53 0.53 0.0 0 1 145.78 182.20
  Q 266.41 182.08 290.49 182.24
  Q 305.29 182.34 319.52 184.37
  A 1.79 1.79 0.0 0 0 321.13 183.77
  C 325.15 179.15 328.11 175.28 333.76 168.59
  Q 340.02 161.19 342.55 157.76
  C 350.12 147.51 358.19 138.33 367.25 126.86
  Q 379.63 111.16 392.89 94.88
  Q 393.97 93.55 396.18 90.29
  A 0.04 0.04 0.0 0 1 396.23 90.28
  Q 396.38 90.37 396.44 90.48
  A 0.18 0.16 47.9 0 1 396.44 90.65
  Q 381.14 116.39 366.11 140.57
  Q 364.82 142.66 362.84 145.88
  Q 355.90 157.18 338.73 183.47
  C 337.03 186.07 334.90 188.68 333.34 191.08
  Q 332.45 192.45 302.22 238.43
  C 276.64 277.33 247.18 321.91 213.28 373.62
  Q 211.75 375.96 208.65 380.34
  C 206.74 383.04 204.11 386.58 202.55 389.30
  Q 199.52 394.57 196.35 399.17
  A 0.54 0.54 0.0 0 0 196.79 400.02
  L 298.84 400.02
  A 0.59 0.59 0.0 0 1 299.41 400.78
  Q 297.66 406.81 295.14 413.50
  Q 277.10 461.42 257.78 513.59
  C 254.06 523.64 249.93 534.78 243.91 550.64
  Q 236.79 569.42 232.32 581.41
  Q 221.66 610.06 211.78 634.63
  A 0.13 0.13 0.0 0 1 211.54 634.55
  Z"
/>
<path fill="#b88ade" d="
  M 196.94 677.31
  A 0.27 0.26 -53.1 0 1 196.58 677.37
  L 196.54 677.34
  A 0.27 0.27 0.0 0 1 196.46 676.98
  Q 210.33 654.12 213.57 648.66
  Q 218.34 640.63 222.33 634.68
  C 226.63 628.28 229.39 622.52 233.62 615.79
  Q 243.77 599.62 263.26 567.99
  Q 267.21 561.59 272.82 553.62
  Q 280.53 542.68 293.52 523.26
  Q 343.82 448.07 402.23 360.99
  Q 419.00 335.99 420.11 334.37
  Q 421.34 332.59 422.43 330.73
  A 0.37 0.36 15.0 0 0 422.11 330.19
  L 320.52 330.19
  A 0.80 0.79 -80.9 0 1 319.77 329.14
  Q 330.06 297.52 332.00 291.03
  Q 334.21 283.62 335.28 280.88
  Q 337.38 275.49 338.79 270.81
  Q 341.88 260.54 349.43 237.18
  C 350.59 233.59 351.98 230.21 353.02 226.84
  Q 356.38 215.92 360.96 202.56
  Q 363.21 196.01 364.23 192.26
  C 365.49 187.59 367.50 183.37 368.96 178.64
  Q 376.71 153.57 385.28 129.62
  A 0.19 0.17 -71.5 0 1 385.50 129.50
  L 385.51 129.51
  A 0.01 0.01 0.0 0 1 385.52 129.52
  L 371.97 195.36
  A 1.12 1.12 0.0 0 0 372.68 196.63
  C 397.20 205.62 420.23 219.80 438.42 238.58
  C 443.48 243.80 449.43 250.35 454.08 257.09
  Q 464.76 272.56 468.99 281.47
  C 475.77 295.74 481.48 311.56 484.90 328.53
  Q 494.77 377.40 485.98 426.23
  C 479.97 459.58 465.46 492.17 442.76 517.08
  C 416.47 545.92 382.22 564.09 343.39 572.60
  Q 311.01 579.70 278.00 578.37
  C 275.44 578.27 274.65 579.69 272.86 581.93
  Q 262.66 594.70 236.61 627.12
  Q 213.80 655.51 196.94 677.31
  Z"
/>
<path fill="#b88ade" d="
  M 798.25 342.84
  L 798.25 414.61
  A 0.56 0.56 0.0 0 1 797.69 415.17
  L 629.12 415.17
  A 0.56 0.56 0.0 0 0 628.56 415.73
  L 628.56 504.81
  A 0.56 0.56 0.0 0 0 629.12 505.37
  L 811.60 505.37
  A 0.56 0.56 0.0 0 1 812.16 505.93
  L 812.16 578.10
  A 0.56 0.56 0.0 0 1 811.60 578.66
  L 540.24 578.66
  A 0.56 0.56 0.0 0 1 539.68 578.10
  L 539.68 182.72
  A 0.56 0.56 0.0 0 1 540.24 182.16
  L 811.37 182.16
  A 0.56 0.56 0.0 0 1 811.93 182.72
  L 811.93 254.69
  A 0.56 0.56 0.0 0 1 811.37 255.25
  L 629.14 255.25
  A 0.56 0.56 0.0 0 0 628.58 255.81
  L 628.58 341.72
  A 0.56 0.56 0.0 0 0 629.14 342.28
  L 797.69 342.28
  A 0.56 0.56 0.0 0 1 798.25 342.84
  Z"
/>
<path fill="#b88ade" d="
  M 839.63 182.19
  L 949.83 182.19
  A 1.72 1.72 0.0 0 1 951.50 183.50
  Q 952.46 187.45 956.86 200.28
  Q 973.62 249.14 1014.13 370.21
  Q 1039.78 446.85 1048.47 471.84
  Q 1049.82 475.72 1050.73 477.91
  A 0.47 0.47 0.0 0 0 1051.60 477.89
  Q 1054.23 470.49 1056.36 463.87
  Q 1076.53 401.12 1107.67 304.96
  Q 1109.75 298.52 1134.65 221.47
  Q 1138.75 208.78 1146.55 182.97
  A 1.15 1.14 -81.3 0 1 1147.64 182.16
  L 1255.55 182.16
  A 0.83 0.82 3.7 0 1 1256.37 183.09
  Q 1256.14 184.85 1255.37 187.08
  C 1229.22 262.59 1202.45 339.21 1177.18 412.64
  Q 1174.84 419.44 1172.45 426.32
  Q 1151.92 485.26 1123.15 567.57
  Q 1121.56 572.11 1119.79 577.33
  A 1.91 1.90 9.4 0 1 1117.99 578.61
  L 977.60 578.61
  A 1.04 1.04 0.0 0 1 976.62 577.91
  L 839.19 182.81
  A 0.47 0.46 -9.7 0 1 839.63 182.19
  Z"
/>
</svg>
